<?xml version="1.0" encoding="UTF-8"?>
<svg viewBox="0 0 640 480" xmlns="http://www.w3.org/2000/svg">
 <g opacity=".6">
  <g stroke="#000" stroke-linejoin="round">
   <path d="m324 166.91c-24.276 3.36e-4 -42.798 16.349-54.114 35.307-11.315 18.958-17.81 42.26-17.81 67.898-3.36e-4 25.638 6.494 49.619 17.81 68.576s29.838 35.307 54.114 35.307c24.276 3.36e-4 43.483-16.349 54.799-35.307s17.125-42.939 17.125-68.576c3.36e-4 -25.638-5.8094-48.94-17.125-67.898s-30.524-35.307-54.799-35.307zm0 24.443c30.63 0 55.484 37.622 55.484 83.514s-24.855 82.835-55.484 82.835c-30.63 3.36e-4 -55.484-36.942-55.484-82.835 0-45.892 24.855-83.514 55.484-83.514z" stroke-width="4.4"/>
   <g stroke-width="3">
    <path d="m324.23 209.04c-29.05 0-54.807 15.5-70.538 39.747-0.85625 7.6043-1.2459 15.53-1.3827 23.554 15.534-22.295 41.808-36.803 71.921-36.803 29.792 0 55.997 14.167 71.46 36.068-0.13913-7.5251-0.64117-14.928-1.383-22.083-15.578-24.428-40.899-40.483-70.077-40.483z"/>
    <path d="m311.85 305.43c-18.038 2.3333-34.239 10.531-47.77 21.598 1.6559 3.253 3.0557 6.9681 5.0284 9.9685 1.6787 2.5538 3.8641 5.0668 5.8662 7.4763 14.318-7.3875 30.804-11.63 48.609-11.63s34.276 4.2426 48.608 11.63c2.0021-2.4096 4.1872-4.9226 5.8666-7.4763 2.0416-3.1051 4.1889-6.5938 5.8662-9.9685-16.398-13.622-37.441-21.598-60.341-21.598-4.127 0-7.7466-0.51587-11.734 0z"/>
    <path d="m323.74 256c-27.456 0-47.839 12.851-66.289 31.415 1.0492 7.7018-1.5041 13.893 0.91846 20.92 17.786-13.483 40.459-21.599 65.37-21.599s47.666 8.1159 65.37 21.599c2.3456-7.0268 0.61408-13.218 1.6034-20.92-18.344-18.693-39.352-31.415-66.974-31.415z"/>
    <path d="m324.26 93.999c-35.022 0-63.685 24.098-63.685 54.33 0 18.519 10.76 35.079 27.144 45.016 3.3256-7.8474 17.235-13.971 34.452-13.971 18.447 0 33.67 6.8405 35.497 15.523 17.896-9.6953 29.754-26.947 29.754-46.568 0-30.232-28.141-54.33-63.163-54.33zm-40.194 31.563c5.9318 0 10.44 8.1139 10.44 18.11-3.36e-4 9.996-4.5083 18.11-10.44 18.11-5.9325 3.36e-4 -10.962-8.1136-10.962-18.11 0-9.996 5.0304-18.11 10.962-18.11zm79.867 0c5.9321 0 10.962 8.1139 10.962 18.11 0 9.996-5.0304 18.11-10.962 18.11-5.9321 3.36e-4 -10.44-8.1136-10.44-18.11 0-9.996 4.5079-18.11 10.44-18.11z"/>
   </g>
   <path d="m189.23 126.71c21.46 1.5045 53.911 10.436 90.83 31.563 3.4424 1.9701 6.1669 4.1994 9.3961 6.2089-3.5561 3.0101-6.5049 6.4356-9.3961 9.8311-2.1316-1.3329-4.0357-2.8637-6.2643-4.1394-21.958-12.566-44.307-19.727-62.641-21.214s-32.63 2.637-38.629 12.935c-11.997 20.598 19.279 50.501 63.195 75.634 2.9632 1.6959 8.2846 5.0922 11.28 6.5646-0.41168 0.46159-8.8911 6.2762-9.2242 6.7991-2.9787-1.616-5.7896-2.8917-8.8743-4.657-36.918-21.127-61.559-44.422-73.603-62.091s-14.12-32.147-7.8304-42.946c6.2901-10.798 20.301-15.992 41.761-14.488zm69.427 131.94c0.25946 1.0116 0.32288 2.0598 0.52219 3.1046-0.33801-0.14725-0.7059-0.36832-1.0443-0.51758 0.36993-0.86642 0.3765-1.6278 0.52216-2.5871z" stroke-width="4.971"/>
   <path d="m263.41 233.44c-0.64084 2.3977-1.8828 4.6432-2.3677 7.096-0.17065 0.066925 0.041748 0.58612-0.12891 0.65305-46.79 18.413-75.005 43.906-64.364 61.824 8.8935 14.975 41.757 20.344 82.71 16.403 0.65927 0.88428 0.68793 1.9186 1.3803 2.7903 0.97229 1.225 2.0915 2.407 3.1477 3.6218-21.77 3.2389-41.655 4.6172-57.749 3.8997-28.706-1.2806-48.271-7.5921-55.129-19.139-6.8577-11.548 0.46529-25.963 19.637-40.736 15.653-12.061 40.495-25.243 72.864-36.411z" stroke-width="1.884"/>
   <path d="m458.76 126.71c-21.46 1.5045-53.911 10.436-90.83 31.563-3.4424 1.9701-6.1669 4.1994-9.3961 6.2089 3.5561 3.0101 6.5049 6.4356 9.3961 9.8311 2.1316-1.3329 4.0357-2.8637 6.2643-4.1394 21.958-12.566 44.307-19.727 62.641-21.214s32.63 2.637 38.629 12.935c11.997 20.598-19.279 50.501-63.195 75.634-2.9632 1.6959-8.2846 5.0922-11.28 6.5646 0.41168 0.46159 8.8911 6.2762 9.2242 6.7991 2.9787-1.616 5.7896-2.8917 8.8743-4.657 36.918-21.127 61.559-44.422 73.603-62.091s14.12-32.147 7.8304-42.946c-6.2901-10.798-20.301-15.992-41.761-14.488zm-69.427 131.94c-0.25946 1.0116-0.32288 2.0598-0.52216 3.1046 0.33801-0.14725 0.70587-0.36832 1.0443-0.51758-0.36993-0.86642-0.37646-1.6278-0.52216-2.5871z" stroke-width="4.971"/>
   <path d="m384.58 233.44c0.64081 2.3977 1.8828 4.6432 2.3677 7.096 0.17062 0.066925-0.041748 0.58612 0.12891 0.65305 46.79 18.413 75.005 43.906 64.364 61.824-8.8935 14.975-41.757 20.344-82.71 16.403-0.65924 0.88428-0.6879 1.9186-1.3803 2.7903-0.97229 1.225-2.0915 2.407-3.1477 3.6218 21.77 3.2389 41.655 4.6172 57.749 3.8997 28.706-1.2806 48.271-7.5921 55.129-19.139 6.8577-11.548-0.46527-25.963-19.637-40.736-15.653-12.061-40.495-25.243-72.864-36.411z" stroke-width="1.884"/>
  </g>
 </g>
 <g opacity=".6">
  <g stroke="#FFCD02" stroke-linejoin="round">
   <path d="m324 166.91c-24.276 3.36e-4 -42.798 16.349-54.114 35.307-11.315 18.958-17.81 42.26-17.81 67.898-3.66e-4 25.638 6.494 49.619 17.81 68.576s29.838 35.307 54.114 35.307c24.276 3.36e-4 43.483-16.349 54.799-35.307s17.125-42.939 17.125-68.576c3.36e-4 -25.638-5.8094-48.94-17.125-67.898s-30.524-35.307-54.799-35.307zm0 24.443c30.63 0 55.484 37.622 55.484 83.514s-24.855 82.835-55.484 82.835c-30.63 3.36e-4 -55.484-36.942-55.484-82.835 0-45.892 24.855-83.514 55.484-83.514z" stroke-width="4.4"/>
   <g stroke-width="3">
    <path d="m324.23 209.04c-29.05 0-54.807 15.5-70.538 39.747-0.85623 7.6043-1.2459 15.53-1.3827 23.554 15.534-22.295 41.808-36.803 71.921-36.803 29.792 0 55.997 14.167 71.46 36.068-0.13913-7.5251-0.64117-14.928-1.383-22.083-15.578-24.428-40.899-40.483-70.077-40.483z"/>
    <path d="m311.85 305.43c-18.038 2.3333-34.239 10.531-47.77 21.598 1.6559 3.253 3.0557 6.9681 5.0284 9.9685 1.6787 2.5538 3.8641 5.0668 5.8662 7.4763 14.318-7.3875 30.804-11.63 48.609-11.63s34.276 4.2426 48.608 11.63c2.0021-2.4096 4.1872-4.9226 5.8666-7.4763 2.0416-3.1051 4.1889-6.5938 5.8662-9.9685-16.398-13.622-37.441-21.598-60.341-21.598-4.127 0-7.7466-0.51587-11.734 0z"/>
    <path d="m323.74 256c-27.456 0-47.839 12.851-66.289 31.415 1.0492 7.7018-1.5041 13.893 0.91846 20.92 17.786-13.483 40.459-21.599 65.37-21.599s47.666 8.1159 65.37 21.599c2.3456-7.0268 0.61408-13.218 1.6034-20.92-18.344-18.693-39.352-31.415-66.974-31.415z"/>
    <path d="m324.26 93.999c-35.022 0-63.685 24.098-63.685 54.33 0 18.519 10.76 35.079 27.144 45.016 3.3256-7.8474 17.235-13.971 34.452-13.971 18.447 0 33.67 6.8405 35.497 15.523 17.896-9.6953 29.754-26.947 29.754-46.568 0-30.232-28.141-54.33-63.163-54.33zm-40.194 31.563c5.9318 0 10.44 8.1139 10.44 18.11-3.36e-4 9.996-4.5083 18.11-10.44 18.11-5.9325 3.36e-4 -10.962-8.1136-10.962-18.11 0-9.996 5.0304-18.11 10.962-18.11zm79.867 0c5.9321 0 10.962 8.1139 10.962 18.11 0 9.996-5.0304 18.11-10.962 18.11-5.9321 3.36e-4 -10.44-8.1136-10.44-18.11 0-9.996 4.5079-18.11 10.44-18.11z"/>
   </g>
   <path d="m189.23 126.71c21.46 1.5045 53.911 10.436 90.83 31.563 3.4424 1.9701 6.1669 4.1994 9.3961 6.2089-3.5561 3.0101-6.5049 6.4356-9.3961 9.8311-2.1316-1.3329-4.0357-2.8637-6.2643-4.1394-21.958-12.566-44.307-19.727-62.641-21.214s-32.63 2.637-38.629 12.935c-11.997 20.598 19.279 50.501 63.195 75.634 2.9632 1.6959 8.2846 5.0922 11.28 6.5646-0.41168 0.46161-8.8911 6.2762-9.2242 6.7991-2.9787-1.616-5.7896-2.8917-8.8743-4.657-36.918-21.127-61.559-44.422-73.603-62.091s-14.12-32.147-7.8304-42.946c6.2901-10.798 20.301-15.992 41.761-14.488zm69.427 131.94c0.25946 1.0116 0.32288 2.0598 0.52219 3.1046-0.33801-0.14725-0.7059-0.36832-1.0443-0.51758 0.36993-0.86642 0.3765-1.6278 0.52216-2.5871z" stroke-width="4.971"/>
   <path d="m263.41 233.44c-0.64084 2.3977-1.8828 4.6432-2.3677 7.096-0.17065 0.066925 0.041748 0.58612-0.12891 0.65305-46.79 18.413-75.005 43.906-64.364 61.824 8.8935 14.975 41.757 20.344 82.71 16.403 0.65927 0.88428 0.68793 1.9186 1.3803 2.7903 0.97229 1.225 2.0915 2.407 3.1477 3.6218-21.77 3.2389-41.655 4.6172-57.749 3.8997-28.706-1.2806-48.271-7.5921-55.129-19.139-6.8577-11.548 0.46529-25.963 19.637-40.736 15.653-12.061 40.495-25.243 72.864-36.411z" stroke-width="1.884"/>
   <path d="m458.76 126.71c-21.46 1.5045-53.911 10.436-90.83 31.563-3.4424 1.9701-6.1669 4.1994-9.3961 6.2089 3.5561 3.0101 6.5049 6.4356 9.3961 9.8311 2.1316-1.3329 4.0357-2.8637 6.2643-4.1394 21.958-12.566 44.307-19.727 62.641-21.214s32.63 2.637 38.629 12.935c11.997 20.598-19.279 50.501-63.195 75.634-2.9632 1.6959-8.2846 5.0922-11.28 6.5646 0.41168 0.46161 8.8911 6.2762 9.2242 6.7991 2.9787-1.616 5.7896-2.8917 8.8743-4.657 36.918-21.127 61.559-44.422 73.603-62.091s14.12-32.147 7.8303-42.946c-6.29-10.798-20.301-15.992-41.761-14.488zm-69.427 131.94c-0.25946 1.0116-0.32288 2.0598-0.52216 3.1046 0.33801-0.14725 0.70587-0.36832 1.0443-0.51758-0.36993-0.86642-0.37646-1.6278-0.52216-2.5871z" stroke-width="4.971"/>
   <path d="m384.58 233.44c0.64081 2.3977 1.8828 4.6432 2.3677 7.096 0.17062 0.066925-0.041748 0.58612 0.12891 0.65305 46.79 18.413 75.005 43.906 64.364 61.824-8.8935 14.975-41.757 20.344-82.71 16.403-0.65924 0.88428-0.6879 1.9186-1.3803 2.7903-0.97229 1.225-2.0915 2.407-3.1477 3.6218 21.77 3.2389 41.655 4.6172 57.749 3.8997 28.706-1.2806 48.271-7.5921 55.129-19.139 6.8577-11.548-0.46527-25.963-19.637-40.736-15.653-12.061-40.495-25.243-72.864-36.411z" stroke-width="1.884"/>
  </g>
 </g>
 <g stroke="#FFCD02" stroke-width="5">
  <path d="m300.25 370l21 35.5 28.5-36-26.5 11.25 0.5-6 2.75 0.5"/>
  <g fill="none">
   <path d="m324 375.25h4c0.25 0 0.25-0.25 0-0.25s-0.25 0.25-0.5 0.25h-0.75c-0.25 0-0.57321 0.073212-0.75 0.25s-0.32321 0.073212-0.5 0.25-0.42679 0.32321-0.25 0.5 0.5 0 0.75 0 0.57321 0.17679 0.75 0 0.25-0.25 0.5-0.25h2.25c-0.25 0-0.53806-0.19134-1 0-0.32663 0.13528-0.5 0.25-0.75 0.25h-1.75c0.25 0 0.32321 0.073212 0.5 0.25s0.25 0.25 0.25 0.5 0 0.5 0.25 0.5 0.5 0 0.5 0.25h0.5"/>
   <path d="m300.5 370.25c-0.25 0-0.5 0-0.5-0.25v-0.75c0-0.25-0.25-0.25-0.25-0.5v-1.5c0-0.25 0.25-0.25 0.5-0.25h0.75c0.25 0 0.57321-0.17679 0.75 0s0 0.5 0.25 0.75v0.25h0.25"/>
   <path d="m349.5 369.75c0.25 0 0.25-0.25 0.5-0.25s0.32321-0.073212 0.5-0.25 0-0.5 0-0.75v-0.75c0-0.25 0.25-0.25 0.25-0.5v-0.25h0.25"/>
   <path d="m299 367.75c-0.25 0-0.25-0.25-0.5-0.25h1.5v0.25"/>
  </g>
 </g>
 <g opacity=".6">
  <g stroke="#FFCD02" stroke-linejoin="round">
   <path d="m324 166.91c-24.276 3.36e-4 -42.798 16.349-54.114 35.307-11.315 18.958-17.81 42.26-17.81 67.898-3.66e-4 25.638 6.494 49.619 17.81 68.576s29.838 35.307 54.114 35.307c24.276 3.36e-4 43.483-16.349 54.799-35.307s17.125-42.939 17.125-68.576c3.36e-4 -25.638-5.8094-48.94-17.125-67.898s-30.524-35.307-54.799-35.307zm0 24.443c30.63 0 55.484 37.622 55.484 83.514s-24.855 82.835-55.484 82.835c-30.63 3.36e-4 -55.484-36.942-55.484-82.835 0-45.892 24.855-83.514 55.484-83.514z" stroke-width="4.4"/>
   <g stroke-width="3">
    <path d="m324.23 209.04c-29.05 0-54.807 15.5-70.538 39.747-0.85623 7.6043-1.2459 15.53-1.3827 23.554 15.534-22.295 41.808-36.803 71.921-36.803 29.792 0 55.997 14.167 71.46 36.068-0.13913-7.5251-0.64117-14.928-1.383-22.083-15.578-24.428-40.899-40.483-70.077-40.483z"/>
    <path d="m311.85 305.43c-18.038 2.3333-34.239 10.531-47.77 21.598 1.6559 3.253 3.0557 6.9681 5.0284 9.9685 1.6787 2.5538 3.8641 5.0668 5.8662 7.4763 14.318-7.3875 30.804-11.63 48.609-11.63s34.276 4.2426 48.608 11.63c2.0021-2.4096 4.1872-4.9226 5.8666-7.4763 2.0416-3.1051 4.1889-6.5938 5.8662-9.9685-16.398-13.622-37.441-21.598-60.341-21.598-4.127 0-7.7466-0.51587-11.734 0z"/>
    <path d="m323.74 256c-27.456 0-47.839 12.851-66.289 31.415 1.0492 7.7018-1.5041 13.893 0.91846 20.92 17.786-13.483 40.459-21.599 65.37-21.599s47.666 8.1159 65.37 21.599c2.3456-7.0268 0.61408-13.218 1.6034-20.92-18.344-18.693-39.352-31.415-66.974-31.415z"/>
    <path d="m324.26 93.999c-35.022 0-63.685 24.098-63.685 54.33 0 18.519 10.76 35.079 27.144 45.016 3.3256-7.8474 17.235-13.971 34.452-13.971 18.447 0 33.67 6.8405 35.497 15.523 17.896-9.6953 29.754-26.947 29.754-46.568 0-30.232-28.141-54.33-63.163-54.33zm-40.194 31.563c5.9318 0 10.44 8.1139 10.44 18.11-3.36e-4 9.996-4.5083 18.11-10.44 18.11-5.9325 3.36e-4 -10.962-8.1136-10.962-18.11 0-9.996 5.0304-18.11 10.962-18.11zm79.867 0c5.9321 0 10.962 8.1139 10.962 18.11 0 9.996-5.0304 18.11-10.962 18.11-5.9321 3.36e-4 -10.44-8.1136-10.44-18.11 0-9.996 4.5079-18.11 10.44-18.11z"/>
   </g>
   <path d="m189.23 126.71c21.46 1.5045 53.911 10.436 90.83 31.563 3.4424 1.9701 6.1669 4.1994 9.3961 6.2089-3.5561 3.0101-6.5049 6.4356-9.3961 9.8311-2.1316-1.3329-4.0357-2.8637-6.2643-4.1394-21.958-12.566-44.307-19.727-62.641-21.214s-32.63 2.637-38.629 12.935c-11.997 20.598 19.279 50.501 63.195 75.634 2.9632 1.6959 8.2846 5.0922 11.28 6.5646-0.41168 0.46161-8.8911 6.2762-9.2242 6.7991-2.9787-1.616-5.7896-2.8917-8.8743-4.657-36.918-21.127-61.559-44.422-73.603-62.091s-14.12-32.147-7.8304-42.946c6.2901-10.798 20.301-15.992 41.761-14.488zm69.427 131.94c0.25946 1.0116 0.32288 2.0598 0.52219 3.1046-0.33801-0.14725-0.7059-0.36832-1.0443-0.51758 0.36993-0.86642 0.3765-1.6278 0.52216-2.5871z" stroke-width="4.971"/>
   <path d="m263.41 233.44c-0.64084 2.3977-1.8828 4.6432-2.3677 7.096-0.17065 0.066925 0.041748 0.58612-0.12891 0.65305-46.79 18.413-75.005 43.906-64.364 61.824 8.8935 14.975 41.757 20.344 82.71 16.403 0.65927 0.88428 0.68793 1.9186 1.3803 2.7903 0.97229 1.225 2.0915 2.407 3.1477 3.6218-21.77 3.2389-41.655 4.6172-57.749 3.8997-28.706-1.2806-48.271-7.5921-55.129-19.139-6.8577-11.548 0.46529-25.963 19.637-40.736 15.653-12.061 40.495-25.243 72.864-36.411z" stroke-width="1.884"/>
   <path d="m458.76 126.71c-21.46 1.5045-53.911 10.436-90.83 31.563-3.4424 1.9701-6.1669 4.1994-9.3961 6.2089 3.5561 3.0101 6.5049 6.4356 9.3961 9.8311 2.1316-1.3329 4.0357-2.8637 6.2643-4.1394 21.958-12.566 44.307-19.727 62.641-21.214s32.63 2.637 38.629 12.935c11.997 20.598-19.279 50.501-63.195 75.634-2.9632 1.6959-8.2846 5.0922-11.28 6.5646 0.41168 0.46161 8.8911 6.2762 9.2242 6.7991 2.9787-1.616 5.7896-2.8917 8.8743-4.657 36.918-21.127 61.559-44.422 73.603-62.091s14.12-32.147 7.8303-42.946c-6.29-10.798-20.301-15.992-41.761-14.488zm-69.427 131.94c-0.25946 1.0116-0.32288 2.0598-0.52216 3.1046 0.33801-0.14725 0.70587-0.36832 1.0443-0.51758-0.36993-0.86642-0.37646-1.6278-0.52216-2.5871z" stroke-width="4.971"/>
   <path d="m384.58 233.44c0.64081 2.3977 1.8828 4.6432 2.3677 7.096 0.17062 0.066925-0.041748 0.58612 0.12891 0.65305 46.79 18.413 75.005 43.906 64.364 61.824-8.8935 14.975-41.757 20.344-82.71 16.403-0.65924 0.88428-0.6879 1.9186-1.3803 2.7903-0.97229 1.225-2.0915 2.407-3.1477 3.6218 21.77 3.2389 41.655 4.6172 57.749 3.8997 28.706-1.2806 48.271-7.5921 55.129-19.139 6.8577-11.548-0.46527-25.963-19.637-40.736-15.653-12.061-40.495-25.243-72.864-36.411z" stroke-width="1.884"/>
  </g>
 </g>
</svg>
